<!-- LEDrums mark: a neon-rainbow drum kit (kick, snare, two rack toms, floor tom, hi-hat,
     ride) on a dark rounded tile. A vector trace of the app icon (apps/desktop/src-tauri/icons),
     re-coloured with a fixed brand gradient + a crisp-core neon glow so it matches the dock icon
     in any theme. Mirrors src/lib/ui/Logo.svelte. Self-contained, no external assets. -->
<svg xmlns="http://www.w3.org/2000/svg" viewBox="0 0 512 512">
  <defs>
    <linearGradient id="rk" x1="70" y1="120" x2="450" y2="420" gradientUnits="userSpaceOnUse">
      <stop offset="0" stop-color="#ff2d95"/>
      <stop offset="0.26" stop-color="#ff7a1a"/>
      <stop offset="0.5" stop-color="#ffe11a"/>
      <stop offset="0.74" stop-color="#7cff2d"/>
      <stop offset="1" stop-color="#22d3ff"/>
    </linearGradient>
    <!-- neon glow: soft dimmed halo underneath, crisp full-opacity core on top -->
    <filter id="glow" x="-20%" y="-20%" width="140%" height="140%">
      <feGaussianBlur in="SourceGraphic" stdDeviation="4" result="blur"/>
      <feComponentTransfer in="blur" result="halo"><feFuncA type="linear" slope="0.75"/></feComponentTransfer>
      <feMerge><feMergeNode in="halo"/><feMergeNode in="SourceGraphic"/></feMerge>
    </filter>
  </defs>
  <rect x="0" y="0" width="512" height="512" rx="100" fill="#131315"/>
  <g fill="url(#rk)" filter="url(#glow)">
  <path d="M129.00 108.00 C133.27 108.12 137.09 108.23 141.25 107.19 C145.37 106.91 146.38 108.98 149.00 112.00 C153.09 115.74 157.41 117.62 162.50 119.75 C193.53 133.12 193.53 133.12 197.00 147.00 C196.91 152.64 196.20 156.13 192.00 160.00 C177.51 167.49 158.39 162.23 143.20 159.29 C142.13 159.08 141.05 158.88 139.94 158.67 C137.00 158.00 137.00 158.00 132.50 156.32 C131.34 156.22 130.19 156.11 129.00 156.00 C126.66 158.83 125.31 160.96 123.75 164.19 C117.73 175.93 117.73 175.93 110.00 177.00 C110.55 181.08 110.91 181.91 114.00 185.00 C114.27 188.50 114.37 191.82 114.34 195.32 C114.35 197.40 114.36 199.48 114.38 201.57 C114.38 204.86 114.37 208.15 114.36 211.44 C114.35 214.61 114.37 217.78 114.40 220.95 C114.39 221.94 114.37 222.93 114.36 223.95 C114.39 226.71 114.39 226.71 115.00 231.00 C117.17 232.13 117.17 232.13 120.00 232.00 C120.93 232.03 121.86 232.05 122.82 232.08 C123.84 232.06 124.86 232.05 125.92 232.03 C127.08 232.01 128.24 232.00 129.43 231.99 C130.05 231.98 130.05 231.98 133.19 231.94 C147.22 231.83 161.04 232.69 175.00 234.00 C176.33 217.97 177.32 202.10 176.75 186.01 C176.52 175.22 176.52 175.22 181.00 171.00 C188.99 166.71 196.05 166.40 205.00 166.56 C206.28 166.58 207.56 166.59 208.88 166.60 C246.58 167.33 246.58 167.33 256.00 180.00 C258.41 184.82 258.47 189.06 256.00 194.00 C259.30 193.67 262.60 193.34 266.00 193.00 C265.92 191.64 265.84 190.28 265.75 188.88 C266.09 182.26 267.74 179.58 273.12 175.81 C290.72 167.58 316.95 165.35 335.25 172.81 C342.69 177.16 342.69 177.16 343.27 182.47 C343.38 189.24 343.38 189.24 342.00 192.00 C341.82 198.43 342.09 204.77 342.50 211.19 C343.03 219.47 343.10 227.71 343.00 236.00 C343.31 235.92 343.31 235.92 344.88 235.52 C349.21 234.80 353.52 234.76 357.89 234.68 C358.84 234.66 359.79 234.64 360.77 234.62 C363.78 234.56 366.80 234.50 369.81 234.44 C371.86 234.39 373.91 234.35 375.96 234.31 C380.97 234.20 385.99 234.10 391.00 234.00 C391.01 225.24 390.97 216.49 390.90 207.73 C390.88 204.75 390.88 201.77 390.88 198.79 C390.88 194.51 390.85 190.23 390.80 185.95 C390.81 185.29 390.81 185.29 390.83 181.91 C390.69 172.63 390.69 172.63 387.14 169.38 C386.10 168.92 385.07 168.47 384.00 168.00 C381.00 164.00 381.00 164.00 379.00 160.00 C376.33 159.32 376.33 159.32 372.96 159.06 C371.74 158.95 370.52 158.84 369.26 158.73 C367.98 158.63 366.70 158.54 365.38 158.44 C345.12 156.83 345.12 156.83 340.00 150.00 C339.35 146.18 339.63 144.58 341.75 141.31 C347.73 137.06 354.79 136.40 361.91 135.11 C383.17 131.20 383.17 131.20 387.94 124.12 C388.71 121.85 389.41 119.56 390.06 117.25 C391.00 114.00 391.00 114.00 393.00 112.00 C394.65 112.00 396.30 112.00 398.00 112.00 C400.39 115.59 400.99 118.83 402.00 123.00 C403.22 127.68 403.22 127.68 406.75 129.12 C407.29 129.27 407.29 129.27 410.00 130.00 C410.79 130.46 411.58 130.93 412.39 131.40 C418.75 134.22 425.70 134.89 432.52 136.02 C438.99 137.16 444.18 138.18 449.00 143.00 C449.59 149.26 449.59 149.26 447.30 152.13 C440.00 158.06 427.83 157.71 418.91 158.57 C411.40 159.40 411.40 159.40 409.69 161.96 C409.32 162.76 408.95 163.55 408.56 164.38 C406.56 168.29 405.00 170.00 401.00 172.00 C399.95 175.14 399.87 177.35 399.87 180.65 C399.87 181.81 399.86 182.96 399.86 184.16 C399.86 185.41 399.87 186.66 399.87 187.95 C399.87 189.23 399.87 190.51 399.86 191.83 C399.86 194.53 399.87 197.24 399.87 199.95 C399.87 204.11 399.87 208.28 399.86 212.44 C399.86 215.07 399.87 217.69 399.87 220.32 C399.87 220.95 399.87 220.95 399.86 224.12 C399.86 225.27 399.87 226.42 399.87 227.61 C399.87 228.63 399.87 229.65 399.87 230.70 C400.00 233.00 400.00 233.00 401.00 234.00 C405.75 234.21 410.50 234.35 415.26 234.43 C428.90 234.85 428.90 234.85 433.00 241.00 C433.44 246.67 433.41 252.35 433.43 258.04 C433.44 260.86 433.49 263.67 433.54 266.49 C433.55 268.28 433.55 270.07 433.56 271.87 C433.57 273.50 433.59 275.13 433.60 276.81 C432.91 281.66 431.84 283.07 428.00 286.00 C421.63 289.10 413.93 288.72 406.97 289.12 C404.30 289.31 401.65 289.64 399.00 290.00 C398.00 293.00 398.00 293.00 398.56 296.00 C399.00 299.00 399.00 299.00 397.00 302.00 C393.88 302.69 393.88 302.69 391.00 303.00 C390.99 308.61 391.05 314.21 391.12 319.81 C391.12 320.61 391.12 320.61 391.12 324.65 C391.14 326.17 391.17 327.70 391.20 329.27 C391.21 330.68 391.22 332.09 391.23 333.54 C392.00 337.00 392.00 337.00 394.91 338.85 C395.93 339.23 396.95 339.61 398.00 340.00 C400.24 342.09 400.24 342.09 402.31 344.50 C402.70 344.95 402.70 344.95 404.65 347.20 C407.67 350.80 410.66 354.43 413.62 358.08 C416.21 361.25 418.85 364.38 421.50 367.50 C422.42 368.59 423.34 369.67 424.28 370.79 C426.05 372.87 427.82 374.95 429.59 377.02 C433.72 381.92 436.48 386.09 439.00 392.00 C441.69 393.19 441.69 393.19 444.00 394.00 C444.00 395.32 444.00 396.64 444.00 398.00 C441.12 399.00 441.12 399.00 438.00 399.00 C436.00 395.00 436.00 395.00 435.63 392.52 C434.81 389.23 433.35 387.98 430.88 385.69 C425.75 380.79 420.93 375.78 416.88 369.94 C415.00 368.00 415.00 368.00 412.69 367.75 C409.37 369.29 407.26 371.58 404.77 374.21 C401.55 377.46 398.65 380.00 394.00 380.00 C394.27 373.20 400.34 370.42 405.29 366.62 C406.18 365.76 407.08 364.89 408.00 364.00 C407.00 360.01 406.34 358.91 403.69 356.00 C403.06 355.31 402.43 354.61 401.79 353.90 C400.41 352.44 399.00 351.02 397.56 349.62 C396.00 348.00 396.00 348.00 396.00 346.00 C393.50 345.38 393.50 345.38 391.00 345.00 C390.98 351.05 390.96 357.10 390.95 363.15 C390.94 365.21 390.93 367.27 390.92 369.33 C390.91 372.29 390.91 375.24 390.90 378.20 C390.90 379.12 390.89 380.04 390.89 380.99 C390.89 384.89 391.05 388.20 392.00 392.00 C388.56 394.29 387.77 394.39 384.00 393.00 C383.00 389.00 383.00 389.00 385.00 386.00 C385.00 383.44 385.00 383.44 384.00 381.00 C383.09 380.71 382.19 380.43 381.25 380.13 C376.58 378.51 373.93 375.42 370.46 372.00 C367.81 369.85 366.41 369.01 363.00 369.00 C360.61 371.27 358.27 373.60 356.00 376.00 C355.01 376.00 354.02 376.00 353.00 376.00 C351.57 371.72 353.55 370.15 356.00 366.66 C359.02 362.65 362.23 358.82 365.48 355.00 C367.80 352.23 370.03 349.42 372.25 346.56 C379.86 337.00 379.86 337.00 384.00 337.00 C384.17 331.56 384.28 326.13 384.38 320.69 C384.43 319.14 384.48 317.59 384.53 315.99 C384.55 314.51 384.57 313.04 384.59 311.51 C384.62 310.14 384.65 308.78 384.68 307.37 C384.00 304.00 384.00 304.00 381.03 302.09 C380.03 301.73 379.03 301.37 378.00 301.00 C375.79 298.79 376.96 292.77 377.00 290.00 C376.25 289.96 375.51 289.92 374.74 289.88 C371.33 289.69 367.91 289.47 364.50 289.25 C363.33 289.19 362.15 289.13 360.95 289.06 C345.69 288.03 345.69 288.03 341.00 281.00 C339.46 272.08 339.88 262.77 339.94 253.75 C339.94 252.42 339.95 251.09 339.95 249.72 C339.96 246.48 339.98 243.24 340.00 240.00 C339.03 240.36 338.07 240.73 337.07 241.10 C327.52 244.63 314.06 249.35 304.00 246.00 C303.67 244.68 303.34 243.36 303.00 242.00 C306.17 238.83 306.80 238.57 310.96 237.94 C311.93 237.78 312.89 237.62 313.89 237.46 C314.89 237.31 315.90 237.16 316.94 237.00 C318.93 236.70 320.92 236.39 322.90 236.06 C323.78 235.93 324.67 235.80 325.57 235.66 C328.00 235.00 328.00 235.00 332.00 232.00 C324.91 229.82 318.28 229.65 310.94 229.69 C309.74 229.69 308.54 229.69 307.31 229.70 C297.64 229.82 287.66 230.04 278.93 234.61 C276.00 236.00 276.00 236.00 271.00 236.00 C268.60 232.40 268.74 230.68 268.68 226.40 C268.64 225.10 268.60 223.81 268.55 222.48 C268.48 219.74 268.43 216.99 268.40 214.25 C268.26 210.62 268.12 207.46 267.00 204.00 C262.75 202.61 260.12 201.94 256.00 204.00 C255.53 206.73 255.53 206.73 255.22 210.34 C255.10 211.63 254.98 212.92 254.86 214.25 C254.74 215.61 254.62 216.97 254.50 218.38 C254.27 221.05 254.03 223.72 253.78 226.40 C253.68 227.59 253.58 228.78 253.47 230.01 C253.00 233.00 253.00 233.00 251.00 236.00 C245.79 236.00 245.10 235.57 241.00 233.00 C238.13 232.09 238.13 232.09 235.12 231.38 C234.14 231.14 233.15 230.90 232.13 230.65 C224.60 229.09 217.36 228.82 209.69 228.81 C208.61 228.80 207.53 228.79 206.42 228.78 C199.67 228.76 193.55 229.29 187.00 231.00 C186.67 231.66 186.34 232.32 186.00 233.00 C194.77 235.32 203.41 237.40 212.43 238.51 C215.00 239.00 215.00 239.00 218.00 241.00 C218.00 242.32 218.00 243.64 218.00 245.00 C208.54 249.73 190.58 242.80 181.00 240.00 C180.98 240.51 180.98 240.51 180.85 243.11 C180.78 244.45 180.70 245.80 180.62 247.19 C180.56 248.52 180.49 249.86 180.41 251.23 C180.00 255.00 180.00 255.00 178.84 257.80 C178.00 260.00 178.00 260.00 180.00 263.00 C180.47 271.53 180.47 271.53 178.00 274.00 C177.86 276.43 177.86 276.43 178.02 279.45 C178.05 279.98 178.05 279.98 178.18 282.71 C178.24 283.83 178.31 284.96 178.38 286.12 C178.40 286.69 178.40 286.69 178.55 289.57 C178.69 292.38 178.84 295.19 179.00 298.00 C179.24 297.50 179.24 297.50 180.43 294.96 C194.35 266.18 215.74 245.06 248.19 239.45 C261.86 237.84 274.97 238.36 288.00 243.00 C289.06 243.37 290.11 243.75 291.20 244.13 C317.21 254.19 336.35 276.62 343.26 303.50 C348.74 329.40 346.48 356.01 329.00 377.00 C328.30 377.85 327.60 378.70 326.88 379.58 C305.89 403.98 279.52 413.82 248.00 412.00 C220.62 408.33 197.85 389.85 185.00 366.00 C183.04 362.08 181.44 358.14 180.00 354.00 C179.61 352.91 179.21 351.83 178.81 350.71 C175.53 340.06 175.73 329.83 176.15 318.76 C176.18 317.55 176.22 316.33 176.25 315.07 C176.30 313.98 176.34 312.88 176.39 311.75 C176.00 309.00 176.00 309.00 172.00 306.00 C171.06 302.24 170.82 299.16 170.72 295.30 C170.70 294.66 170.70 294.66 170.61 291.39 C170.53 288.66 170.46 285.93 170.39 283.20 C170.38 282.56 170.38 282.56 170.28 279.30 C170.25 278.12 170.22 276.93 170.19 275.71 C170.00 273.00 170.00 273.00 169.00 272.00 C168.61 262.07 168.61 262.07 171.00 257.00 C171.38 255.01 171.72 253.01 172.00 251.00 C171.21 251.16 171.21 251.16 167.18 251.96 C161.47 253.00 155.88 253.42 150.08 253.63 C149.10 253.67 148.12 253.72 147.10 253.76 C144.01 253.89 140.91 254.01 137.81 254.12 C135.69 254.21 133.58 254.30 131.46 254.39 C126.31 254.60 121.15 254.80 116.00 255.00 C115.95 256.41 115.90 257.82 115.85 259.27 C115.78 261.12 115.70 262.96 115.62 264.81 C115.59 265.74 115.56 266.67 115.53 267.63 C115.23 274.66 115.23 274.66 113.00 278.00 C111.68 277.67 110.36 277.34 109.00 277.00 C107.75 273.24 107.87 270.03 107.88 266.06 C107.87 264.65 107.87 263.24 107.87 261.79 C108.00 258.00 108.00 258.00 109.00 254.00 C102.73 253.34 96.46 252.68 90.00 252.00 C89.98 253.61 89.96 255.22 89.94 256.88 C89.93 257.78 89.91 258.68 89.90 259.62 C90.00 262.00 90.00 262.00 91.00 264.00 C91.36 270.64 91.36 270.64 89.00 273.00 C88.88 276.16 88.89 279.23 88.99 282.39 C89.01 283.33 89.03 284.27 89.06 285.23 C89.11 287.22 89.16 289.21 89.22 291.19 C89.31 294.22 89.39 297.25 89.46 300.29 C89.51 302.22 89.56 304.15 89.61 306.08 C89.62 306.53 89.62 306.53 89.68 308.82 C89.80 312.45 89.98 315.92 90.65 319.50 C91.00 322.00 91.00 322.00 89.00 324.00 C88.33 330.05 88.33 330.05 90.50 333.12 C100.54 340.67 120.99 338.28 132.81 338.31 C134.36 338.32 135.91 338.32 137.50 338.33 C146.48 338.27 155.08 337.62 163.94 336.13 C164.95 336.09 165.96 336.05 167.00 336.00 C167.66 336.99 168.32 337.98 169.00 339.00 C158.50 349.50 125.82 344.71 112.00 345.00 C111.50 353.29 111.51 358.91 116.44 365.94 C117.35 367.28 118.26 368.61 119.20 369.99 C119.66 370.65 119.66 370.65 122.00 374.00 C123.59 376.52 125.18 379.04 126.75 381.56 C129.18 385.37 131.60 388.83 134.69 392.12 C135.45 393.07 136.21 394.02 137.00 395.00 C136.34 396.32 135.68 397.64 135.00 399.00 C129.67 399.67 129.67 399.67 127.00 397.00 C127.02 396.55 127.02 396.55 127.10 394.25 C126.91 388.00 122.27 383.18 118.81 378.19 C118.04 377.03 117.27 375.87 116.48 374.68 C115.73 373.58 114.98 372.49 114.21 371.36 C113.52 370.35 112.83 369.35 112.13 368.31 C109.73 365.71 108.55 364.87 105.00 365.00 C104.34 366.32 103.68 367.64 103.00 369.00 C101.36 370.89 99.66 372.74 97.94 374.56 C93.34 379.50 88.99 384.56 84.78 389.82 C83.00 392.00 83.00 392.00 81.00 394.00 C80.75 395.18 80.50 396.35 80.25 397.56 C79.00 401.00 79.00 401.00 76.06 402.12 C73.00 402.00 73.00 402.00 70.00 399.00 C72.00 395.00 73.83 393.08 77.00 390.00 C78.85 387.89 80.68 385.77 82.50 383.62 C88.05 377.10 93.66 370.63 99.29 364.18 C103.16 359.64 105.42 356.82 106.00 350.88 C106.12 349.82 106.25 348.77 106.38 347.68 C106.00 345.00 106.00 345.00 103.91 343.72 C99.65 342.67 95.37 341.80 91.06 340.98 C87.56 339.86 86.15 338.97 84.00 336.00 C83.14 332.86 83.14 332.86 82.69 329.31 C82.53 328.15 82.37 326.99 82.20 325.80 C81.97 321.42 82.52 317.36 83.00 313.00 C83.30 307.44 83.46 301.87 83.61 296.31 C83.69 293.68 83.78 291.05 83.87 288.42 C83.92 286.74 83.97 285.06 84.01 283.39 C84.06 281.87 84.10 280.36 84.15 278.80 C84.00 275.00 84.00 275.00 82.00 271.00 C81.56 262.36 82.32 253.61 83.00 245.00 C83.05 243.92 83.11 242.84 83.16 241.73 C84.40 237.71 86.29 236.86 90.00 235.00 C94.05 233.99 94.05 233.99 98.31 233.31 C105.93 232.07 105.93 232.07 107.00 231.00 C107.16 227.90 107.26 224.82 107.32 221.71 C107.34 220.78 107.36 219.85 107.38 218.89 C107.44 215.91 107.50 212.92 107.56 209.94 C107.61 207.92 107.65 205.90 107.69 203.88 C107.80 198.92 107.90 193.96 108.00 189.00 C104.70 190.84 102.94 192.08 100.56 195.12 C97.65 198.39 96.28 198.80 92.00 199.00 C92.00 193.21 92.67 192.77 96.44 188.75 C100.96 183.53 101.69 180.74 102.00 174.00 C104.21 170.77 105.68 170.10 109.44 168.94 C115.70 165.53 117.34 158.65 119.00 152.00 C118.58 151.87 118.58 151.87 116.47 151.23 C101.41 145.91 78.60 135.69 72.00 120.00 C71.07 114.51 71.26 112.84 75.00 108.62 C89.60 99.04 112.95 103.99 129.00 108.00 ZM80.00 114.00 C78.69 116.62 78.69 116.62 79.00 120.00 C87.35 130.84 100.75 136.41 113.25 141.19 C114.06 141.50 114.87 141.82 115.70 142.14 C121.51 144.24 121.51 144.24 126.00 142.00 C126.99 140.68 127.98 139.36 129.00 138.00 C131.69 138.25 131.69 138.25 134.00 139.00 C133.82 139.63 133.82 139.63 132.94 142.81 C132.96 144.19 132.98 145.58 133.00 147.00 C136.23 148.67 138.49 149.30 142.00 150.00 C143.06 150.28 144.11 150.55 145.20 150.84 C152.82 152.66 160.20 153.31 168.00 153.38 C168.44 153.38 168.44 153.38 170.68 153.42 C176.10 153.38 180.26 152.68 185.00 150.00 C185.64 146.55 184.71 144.90 182.57 142.18 C164.17 123.89 104.96 100.12 80.00 114.00 ZM381.54 140.62 C375.90 143.69 369.23 144.63 363.00 146.00 C367.66 148.33 371.84 148.70 376.94 149.12 C377.91 149.21 378.89 149.29 379.90 149.38 C394.06 150.49 408.04 150.32 422.19 149.12 C423.14 149.05 424.09 148.97 425.07 148.89 C431.75 148.25 431.75 148.25 434.00 146.00 C433.21 145.82 432.42 145.64 431.61 145.45 C429.32 144.92 427.03 144.39 424.74 143.86 C422.30 143.30 419.86 142.76 417.42 142.24 C416.29 141.99 415.16 141.75 414.00 141.50 C412.97 141.28 411.94 141.07 410.88 140.84 C408.00 140.00 408.00 140.00 405.58 138.44 C398.23 134.34 388.21 136.10 381.54 140.62 ZM393.00 160.00 C393.00 160.33 393.00 160.66 393.00 161.00 C394.65 161.00 396.30 161.00 398.00 161.00 C398.00 160.67 398.00 160.34 398.00 160.00 C396.35 160.00 394.70 160.00 393.00 160.00 ZM188.00 181.00 C187.40 183.93 187.40 183.93 187.09 187.66 C186.96 189.01 186.84 190.36 186.72 191.76 C186.61 193.18 186.49 194.60 186.38 196.06 C186.13 198.85 185.89 201.63 185.65 204.41 C185.54 205.72 185.43 207.03 185.32 208.38 C184.95 212.60 184.50 216.80 184.00 221.00 C185.03 220.98 186.06 220.97 187.13 220.95 C191.04 220.90 194.96 220.86 198.87 220.84 C201.37 220.81 203.86 220.77 206.35 220.74 C217.26 220.67 227.33 221.85 238.00 224.00 C244.85 225.15 244.85 225.15 246.00 224.00 C246.29 221.86 246.52 219.70 246.72 217.55 C246.85 216.23 246.97 214.90 247.11 213.54 C247.24 212.15 247.37 210.75 247.50 209.31 C247.76 206.58 248.02 203.85 248.28 201.11 C248.40 199.89 248.51 198.68 248.63 197.42 C249.00 194.00 249.00 194.00 249.67 190.81 C250.00 188.00 250.00 188.00 248.00 184.00 C245.31 182.59 245.31 182.59 242.00 181.38 C241.46 181.17 241.46 181.17 238.75 180.15 C230.23 177.54 222.41 176.68 213.56 176.75 C212.60 176.74 211.64 176.73 210.65 176.73 C194.34 176.77 194.34 176.77 188.00 181.00 ZM285.00 182.00 C286.00 184.00 286.00 184.00 289.00 185.00 C292.09 194.28 293.16 210.51 290.00 220.00 C290.49 220.01 290.49 220.01 292.98 220.08 C297.46 220.19 301.95 220.31 306.44 220.44 C307.21 220.46 307.21 220.46 311.12 220.56 C324.01 220.92 324.01 220.92 329.54 221.60 C333.00 222.00 333.00 222.00 334.00 221.00 C334.02 218.45 333.96 215.90 333.88 213.35 C333.83 211.79 333.78 210.23 333.73 208.62 C333.70 207.79 333.70 207.79 333.56 203.62 C333.46 200.39 333.36 197.15 333.25 193.91 C333.21 192.47 333.16 191.03 333.11 189.54 C333.04 187.36 333.00 185.18 333.00 183.00 C319.38 175.92 299.17 177.34 285.00 182.00 ZM276.00 186.00 C275.42 188.57 275.42 188.57 275.48 191.63 C275.49 192.75 275.50 193.87 275.51 195.02 C275.55 196.19 275.59 197.36 275.62 198.56 C275.64 199.71 275.65 200.85 275.67 202.03 C275.99 220.99 275.99 220.99 278.00 223.00 C280.67 222.71 283.34 222.38 286.00 222.00 C286.00 219.00 286.00 219.00 285.03 216.70 C283.06 211.54 283.43 205.91 283.25 200.44 C283.19 199.21 283.14 197.97 283.08 196.71 C283.04 195.52 283.00 194.34 282.95 193.12 C282.91 192.04 282.87 190.96 282.83 189.85 C283.00 187.00 283.00 187.00 285.00 183.00 C280.70 183.00 279.28 183.34 276.00 186.00 ZM93.00 242.00 C93.00 242.66 93.00 243.32 93.00 244.00 C112.59 248.76 134.60 247.90 154.62 246.19 C155.52 246.12 156.42 246.05 157.34 245.98 C163.64 245.36 163.64 245.36 167.00 242.00 C155.94 238.47 144.63 238.81 133.15 238.81 C130.34 238.81 127.53 238.79 124.72 238.78 C99.61 238.70 99.61 238.70 93.00 242.00 ZM351.00 244.00 C351.00 244.66 351.00 245.32 351.00 246.00 C368.89 251.96 406.18 251.94 424.00 246.00 C423.84 245.50 423.84 245.50 423.00 243.00 C419.62 242.49 419.62 242.49 415.11 242.32 C413.47 242.26 411.83 242.19 410.14 242.13 C402.20 241.91 394.26 241.86 386.31 241.88 C384.75 241.87 383.20 241.87 381.59 241.86 C355.23 241.89 355.23 241.89 351.00 244.00 ZM195.25 282.81 C180.26 307.12 178.08 334.19 189.34 360.53 C193.83 369.92 199.72 377.60 207.00 385.00 C207.61 385.63 208.23 386.25 208.86 386.90 C227.00 404.03 252.59 408.59 276.59 405.39 C303.22 399.79 322.71 383.28 333.50 358.55 C342.06 336.14 342.50 313.77 332.00 292.00 C331.58 291.09 331.16 290.17 330.73 289.23 C326.79 281.29 321.23 275.24 315.00 269.00 C314.35 268.33 313.71 267.66 313.04 266.97 C279.05 234.32 220.21 245.45 195.25 282.81 ZM348.00 255.00 C347.85 257.27 347.78 259.54 347.75 261.81 C347.72 263.06 347.70 264.30 347.67 265.58 C348.00 269.00 348.00 269.00 351.00 273.00 C351.36 275.33 351.69 277.66 352.00 280.00 C358.53 283.27 368.57 282.15 375.82 282.13 C376.80 282.13 377.79 282.13 378.80 282.14 C380.86 282.14 382.93 282.13 384.99 282.13 C388.12 282.13 391.26 282.13 394.39 282.14 C396.41 282.14 398.43 282.13 400.45 282.13 C401.37 282.13 402.30 282.14 403.25 282.14 C417.83 282.09 417.83 282.09 422.00 280.00 C422.68 277.00 423.34 274.00 424.00 271.00 C424.66 270.34 425.32 269.68 426.00 269.00 C426.23 265.78 426.23 265.78 426.19 261.94 C426.18 260.67 426.17 259.40 426.17 258.09 C426.00 255.00 426.00 255.00 425.00 254.00 C415.60 254.24 415.60 254.24 413.44 257.00 C412.85 261.00 412.36 264.98 412.00 269.00 C410.68 269.00 409.36 269.00 408.00 269.00 C407.95 268.24 407.90 267.48 407.85 266.70 C407.78 265.71 407.70 264.71 407.62 263.69 C407.59 263.19 407.59 263.19 407.41 260.70 C407.00 258.00 407.00 258.00 405.00 255.00 C401.50 254.63 401.50 254.63 397.00 254.64 C396.20 254.64 396.20 254.64 392.12 254.64 C391.70 254.64 391.70 254.64 389.58 254.66 C387.01 254.69 384.44 254.68 381.88 254.68 C369.27 254.73 369.27 254.73 367.00 257.00 C366.59 260.04 366.59 260.04 366.38 263.62 C366.30 264.81 366.23 266.00 366.15 267.23 C366.10 268.14 366.05 269.06 366.00 270.00 C362.00 269.00 362.00 269.00 361.00 267.00 C360.84 264.18 360.75 261.36 360.67 258.53 C360.00 256.00 360.00 256.00 357.66 254.67 C350.21 252.79 350.21 252.79 348.00 255.00 ZM386.00 290.00 C386.33 291.65 386.66 293.30 387.00 295.00 C387.99 294.67 388.98 294.34 390.00 294.00 C390.00 292.68 390.00 291.36 390.00 290.00 C388.68 290.00 387.36 290.00 386.00 290.00 ZM381.00 346.00 C378.02 348.75 378.02 348.75 374.81 352.56 C373.75 353.80 372.68 355.04 371.58 356.32 C369.11 359.84 367.97 361.73 368.00 366.00 C370.44 368.00 370.44 368.00 374.00 370.00 C375.41 371.09 376.80 372.20 378.19 373.31 C382.00 376.00 382.00 376.00 385.00 375.00 C385.70 370.38 385.46 365.67 385.44 361.00 C385.46 359.68 385.48 358.35 385.50 356.99 C385.50 356.36 385.50 356.36 385.50 353.19 C385.50 352.03 385.50 350.86 385.50 349.67 C385.34 348.79 385.17 347.91 385.00 347.00 C383.68 346.67 382.36 346.34 381.00 346.00 Z"/>
  <path d="M117.00 176.00 C117.66 176.16 117.66 176.16 121.00 177.00 C121.50 180.00 121.50 180.00 121.00 183.00 C119.68 183.33 118.36 183.66 117.00 184.00 C115.02 182.02 116.59 178.53 117.00 176.00 Z"/>
  <path d="M235.00 183.00 C239.00 184.00 239.00 184.00 240.00 186.00 C239.94 189.37 239.81 192.70 239.62 196.06 C239.58 196.98 239.54 197.90 239.49 198.84 C238.65 215.35 238.65 215.35 236.00 218.00 C233.40 218.04 233.40 218.04 231.00 217.00 C230.48 214.15 230.48 214.15 230.62 210.38 C230.67 209.03 230.72 207.68 230.77 206.29 C230.85 204.87 230.92 203.46 231.00 202.00 C231.05 200.62 231.09 199.23 231.14 197.81 C231.59 187.55 231.59 187.55 235.00 183.00 Z"/>
  <path d="M111.00 312.00 C114.71 315.71 114.41 316.96 114.38 322.06 C114.38 323.31 114.39 324.56 114.40 325.85 C114.00 329.00 114.00 329.00 111.00 331.00 C108.04 328.04 108.73 325.61 108.75 321.50 C108.74 320.15 108.74 318.80 108.73 317.41 C109.00 314.00 109.00 314.00 111.00 312.00 Z"/>
  <path d="M307.81 338.81 C314.30 345.30 315.53 352.17 315.00 361.00 C312.47 370.14 307.53 375.89 299.00 380.00 C289.25 382.44 282.43 381.16 274.31 375.38 C267.36 368.29 265.55 360.68 267.00 351.00 C269.67 342.81 273.96 337.95 281.75 334.19 C292.10 331.30 298.96 333.11 307.81 338.81 ZM274.94 346.75 C271.40 354.51 271.16 360.33 275.00 368.00 C280.15 374.26 285.29 376.66 293.48 376.34 C300.71 375.37 305.27 371.69 308.93 365.63 C311.48 359.36 310.87 353.28 308.50 347.06 C304.18 341.77 298.73 338.46 291.94 337.62 C284.64 338.32 279.56 341.09 274.94 346.75 Z"/>
  <path d="M179.00 365.00 C181.31 374.24 175.86 384.49 172.43 393.06 C170.85 397.13 169.94 400.60 169.48 404.96 C169.00 409.00 169.00 409.00 166.00 411.00 C159.76 410.89 159.76 410.89 157.19 407.88 C157.00 405.00 157.00 405.00 159.59 402.34 C164.80 396.54 166.76 388.85 169.31 381.62 C170.37 378.70 171.43 375.78 172.49 372.85 C172.72 372.21 172.72 372.21 173.88 368.94 C175.38 365.00 175.38 365.00 179.00 365.00 Z"/>
  <path d="M341.00 369.00 C345.30 370.43 345.11 372.38 346.48 376.59 C346.92 377.93 347.36 379.27 347.82 380.65 C348.27 382.07 348.72 383.48 349.19 384.94 C349.65 386.35 350.11 387.76 350.59 389.21 C354.00 399.66 354.00 399.66 354.00 402.00 C354.85 402.27 355.69 402.54 356.56 402.81 C357.37 403.20 358.17 403.60 359.00 404.00 C359.25 406.56 359.25 406.56 358.00 409.00 C354.56 409.94 354.56 409.94 351.00 410.00 C349.00 408.00 349.00 408.00 349.19 404.12 C349.31 398.81 347.53 394.92 345.38 390.13 C343.99 386.98 342.80 383.82 341.69 380.56 C341.52 380.09 341.52 380.09 340.70 377.69 C340.00 375.00 340.00 375.00 340.00 370.00 C340.33 369.67 340.66 369.34 341.00 369.00 Z"/>
  </g>
</svg>
